<svg width="512" height="256" viewBox="0 0 512 256" fill="none" xmlns="http://www.w3.org/2000/svg">
<g clip-path="url(#clip0_1147_40)">
<path d="M61.7143 0L123.429 29.4079V54.8571L61.7143 25.4492L1.11244e-06 54.8571L0 29.4079L61.7143 0Z" fill="#312E81"/>
<path d="M61.7143 66.2856C27.6245 66.2856 0 93.9104 0 128C0 162.09 27.6245 189.714 61.7143 189.714C95.804 189.714 123.429 162.09 123.429 128C123.429 93.9104 95.804 66.2856 61.7143 66.2856Z" fill="#312E81"/>
<path d="M61.7143 256L0 226.592L1.11242e-06 201.143L61.7143 230.551L123.429 201.143V226.592L61.7143 256Z" fill="#312E81"/>
<path fill-rule="evenodd" clip-rule="evenodd" d="M244.571 66.2856C210.482 66.2856 182.857 93.9103 182.857 128C182.857 162.089 210.482 189.714 244.571 189.714C278.662 189.714 306.286 162.089 306.286 128C306.286 93.9103 278.662 66.2856 244.571 66.2856ZM206.367 128C206.367 149.101 223.471 166.204 244.571 166.204C265.672 166.204 282.775 149.101 282.775 128C282.775 106.899 265.672 89.7959 244.571 89.7959C223.471 89.7959 206.367 106.899 206.367 128Z" fill="#312E81"/>
<path fill-rule="evenodd" clip-rule="evenodd" d="M381.908 141.283C397.804 136.875 409.507 122.181 409.624 104.784V104.489V104.196C409.449 83.2127 392.563 66.2856 371.777 66.2856H322.286V88.5031L340.918 119.125H322.344V189.714H345.634V142.635H355.416L384.045 189.714H411.429L381.908 141.283ZM368.4 119.184H371.835C379.87 119.184 386.392 112.601 386.392 104.489C386.392 96.3783 379.87 89.7959 371.835 89.7959H350.409L368.4 119.184Z" fill="#312E81"/>
<path d="M450.4 189.714H424L454.976 128.058L424 66.2856H450.4L468.058 101.786L486.186 66.2856H512L450.4 189.714Z" fill="#312E81"/>
</g>
<defs>
<clipPath id="clip0_1147_40">
<rect width="512" height="256" fill="white"/>
</clipPath>
</defs>
</svg>
